<svg width="1671" height="170" viewBox="0 0 1671 170" fill="none" xmlns="http://www.w3.org/2000/svg">
<g filter="url(#filter0_di_290_4050)">
<path d="M284.4 154L265.14 154L243.36 123.22L46.08 123.22L24.12 154L5.04 154L93.24 24.4L196.02 24.4L284.4 154ZM102.78 40.96L56.16 106.66L233.46 106.66L186.48 40.96L102.78 40.96ZM537.507 62.56L339.507 62.56C336.147 62.56 332.607 63.04 328.887 64C325.167 64.84 321.627 66.22 318.267 68.14C315.027 69.94 312.147 72.22 309.627 74.98C307.107 77.62 305.247 80.74 304.047 84.34L304.047 154L287.487 154L287.487 46L304.047 46L302.427 69.22L304.767 69.22C305.607 66.22 307.047 63.34 309.087 60.58C311.247 57.7 313.887 55.18 317.007 53.02C320.247 50.86 323.847 49.18 327.807 47.98C331.767 46.66 336.087 46 340.767 46L537.507 46L537.507 62.56ZM608.231 138.16L630.911 138.16C631.991 138.16 635.531 138.1 641.531 137.98C647.651 137.74 655.331 137.44 664.571 137.08C673.811 136.72 684.251 136.24 695.891 135.64C707.531 135.04 719.411 134.32 731.531 133.48C743.771 132.52 755.831 131.44 767.711 130.24C779.711 129.04 790.631 127.66 800.471 126.1L800.471 141.22C790.751 142.66 779.951 143.98 768.071 145.18C756.191 146.38 744.131 147.46 731.891 148.42C719.651 149.38 707.591 150.22 695.711 150.94C683.831 151.54 673.031 152.08 663.311 152.56C653.591 153.04 645.311 153.4 638.471 153.64C631.751 153.88 627.371 154 625.331 154L601.571 154C596.891 154 592.751 153.1 589.151 151.3C585.551 149.5 582.491 147.16 579.971 144.28C577.571 141.4 575.711 138.16 574.391 134.56C573.071 130.84 572.411 127.06 572.411 123.22L572.411 62.56L547.031 62.56L547.031 46L572.411 46L572.411 3.69999L588.971 3.69999L588.971 46L800.471 46L800.471 62.56L588.971 62.56L588.971 113.86C588.971 118.18 589.511 121.9 590.591 125.02C591.671 128.02 593.111 130.54 594.911 132.58C596.711 134.5 598.751 135.94 601.031 136.9C603.311 137.74 605.711 138.16 608.231 138.16Z" fill="black"/>
</g>
<g filter="url(#filter1_di_290_4050)">
<path d="M835.18 143.64L835 14.4L851.56 14.4L851.56 127.26L1095.28 127.26L1095.28 144L835.18 143.64ZM1375.16 144L1356.8 144L1358.42 118.62L1356.08 118.62C1354.88 124.86 1352.66 129.72 1349.42 133.2C1346.3 136.56 1342.94 139.08 1339.34 140.76C1335.86 142.32 1332.56 143.28 1329.44 143.64C1326.44 143.88 1324.46 144 1323.5 144L1141.34 144C1137.62 144 1133.78 143.52 1129.82 142.56C1125.98 141.6 1122.44 140.04 1119.2 137.88C1115.96 135.6 1113.26 132.6 1111.1 128.88C1109.06 125.04 1108.04 120.36 1108.04 114.84L1108.04 106.38C1108.04 102.54 1108.52 99.06 1109.48 95.94C1110.56 92.7 1112.36 89.94 1114.88 87.66C1117.4 85.26 1120.76 83.4 1124.96 82.08C1129.16 80.76 1134.44 80.1 1140.8 80.1L1357.7 80.1C1357.46 75.9 1356.8 72 1355.72 68.4C1354.64 64.68 1353.02 61.44 1350.86 58.68C1348.7 55.92 1346 53.76 1342.76 52.2C1339.52 50.52 1335.62 49.68 1331.06 49.68L1151.42 49.68C1147.1 49.68 1142.84 49.8 1138.64 50.04C1134.56 50.28 1130.66 50.82 1126.94 51.66C1123.22 52.38 1119.74 53.4 1116.5 54.72C1113.38 56.04 1110.56 57.78 1108.04 59.94L1108.04 45.9C1112.48 42.42 1117.76 39.9 1123.88 38.34C1130.12 36.78 1136.48 36 1142.96 36L1338.62 36C1344.14 36 1349.12 37.02 1353.56 39.06C1358.12 41.1 1361.96 44.04 1365.08 47.88C1368.32 51.6 1370.78 56.1 1372.46 61.38C1374.26 66.66 1375.16 72.54 1375.16 79.02L1375.16 144ZM1358.06 93.96L1145.48 93.96C1138.04 93.96 1132.7 95.28 1129.46 97.92C1126.22 100.56 1124.6 104.76 1124.6 110.52C1124.6 113.04 1124.9 115.44 1125.5 117.72C1126.1 119.88 1127.18 121.8 1128.74 123.48C1130.3 125.16 1132.4 126.48 1135.04 127.44C1137.8 128.4 1141.28 128.88 1145.48 128.88L1329.08 128.88C1338.44 128.88 1345.52 125.94 1350.32 120.06C1355.12 114.18 1357.7 105.48 1358.06 93.96ZM1614.1 36C1619.74 36 1624.96 37.08 1629.76 39.24C1634.68 41.28 1638.94 44.16 1642.54 47.88C1646.26 51.48 1649.14 55.74 1651.18 60.66C1653.34 65.46 1654.42 70.68 1654.42 76.32L1654.42 103.68C1654.42 109.2 1653.34 114.42 1651.18 119.34C1649.14 124.26 1646.26 128.58 1642.54 132.3C1638.94 135.9 1634.68 138.78 1629.76 140.94C1624.96 142.98 1619.74 144 1614.1 144L1439.32 144C1434.64 144 1430.26 143.16 1426.18 141.48C1422.1 139.8 1418.44 137.7 1415.2 135.18C1411.96 132.54 1409.32 129.66 1407.28 126.54C1405.24 123.42 1403.92 120.36 1403.32 117.36L1400.98 117.36L1402.6 144L1386.04 144L1386.04 -2.15558e-06L1402.6 -2.15587e-06L1400.98 57.06L1403.32 57.06C1403.92 54.18 1405.24 51.48 1407.28 48.96C1409.32 46.32 1411.96 44.04 1415.2 42.12C1418.44 40.2 1422.1 38.7 1426.18 37.62C1430.26 36.54 1434.64 36 1439.32 36L1614.1 36ZM1637.86 81.9C1637.86 72.66 1635.1 65.46 1629.58 60.3C1624.18 55.14 1616.86 52.56 1607.62 52.56L1428.16 52.56C1424.8 52.56 1421.56 53.04 1418.44 54C1415.44 54.84 1412.74 56.28 1410.34 58.32C1408.06 60.24 1406.2 62.82 1404.76 66.06C1403.44 69.18 1402.72 73.02 1402.6 77.58L1402.6 100.26C1402.72 103.62 1403.5 106.98 1404.94 110.34C1406.38 113.58 1408.18 116.46 1410.34 118.98C1412.62 121.5 1415.14 123.54 1417.9 125.1C1420.66 126.66 1423.42 127.44 1426.18 127.44L1607.8 127.44C1612.24 127.44 1616.26 126.78 1619.86 125.46C1623.58 124.02 1626.76 122.04 1629.4 119.52C1632.04 117 1634.08 113.94 1635.52 110.34C1637.08 106.74 1637.86 102.78 1637.86 98.46L1637.86 81.9Z" fill="black"/>
</g>
<defs>
<filter id="filter0_di_290_4050" x="1.04" y="3.69995" width="803.431" height="158.3" filterUnits="userSpaceOnUse" color-interpolation-filters="sRGB">
<feFlood flood-opacity="0" result="BackgroundImageFix"/>
<feColorMatrix in="SourceAlpha" type="matrix" values="0 0 0 0 0 0 0 0 0 0 0 0 0 0 0 0 0 0 127 0" result="hardAlpha"/>
<feOffset dy="4"/>
<feGaussianBlur stdDeviation="2"/>
<feComposite in2="hardAlpha" operator="out"/>
<feColorMatrix type="matrix" values="0 0 0 0 0 0 0 0 0 0 0 0 0 0 0 0 0 0 0.25 0"/>
<feBlend mode="normal" in2="BackgroundImageFix" result="effect1_dropShadow_290_4050"/>
<feBlend mode="normal" in="SourceGraphic" in2="effect1_dropShadow_290_4050" result="shape"/>
<feColorMatrix in="SourceAlpha" type="matrix" values="0 0 0 0 0 0 0 0 0 0 0 0 0 0 0 0 0 0 127 0" result="hardAlpha"/>
<feOffset dy="4"/>
<feGaussianBlur stdDeviation="2"/>
<feComposite in2="hardAlpha" operator="arithmetic" k2="-1" k3="1"/>
<feColorMatrix type="matrix" values="0 0 0 0 1 0 0 0 0 0.9375 0 0 0 0 0.9375 0 0 0 0.23 0"/>
<feBlend mode="normal" in2="shape" result="effect2_innerShadow_290_4050"/>
</filter>
<filter id="filter1_di_290_4050" x="831" y="0" width="827.419" height="152" filterUnits="userSpaceOnUse" color-interpolation-filters="sRGB">
<feFlood flood-opacity="0" result="BackgroundImageFix"/>
<feColorMatrix in="SourceAlpha" type="matrix" values="0 0 0 0 0 0 0 0 0 0 0 0 0 0 0 0 0 0 127 0" result="hardAlpha"/>
<feOffset dy="4"/>
<feGaussianBlur stdDeviation="2"/>
<feComposite in2="hardAlpha" operator="out"/>
<feColorMatrix type="matrix" values="0 0 0 0 0 0 0 0 0 0 0 0 0 0 0 0 0 0 0.25 0"/>
<feBlend mode="normal" in2="BackgroundImageFix" result="effect1_dropShadow_290_4050"/>
<feBlend mode="normal" in="SourceGraphic" in2="effect1_dropShadow_290_4050" result="shape"/>
<feColorMatrix in="SourceAlpha" type="matrix" values="0 0 0 0 0 0 0 0 0 0 0 0 0 0 0 0 0 0 127 0" result="hardAlpha"/>
<feOffset dy="4"/>
<feGaussianBlur stdDeviation="2"/>
<feComposite in2="hardAlpha" operator="arithmetic" k2="-1" k3="1"/>
<feColorMatrix type="matrix" values="0 0 0 0 1 0 0 0 0 0.9375 0 0 0 0 0.9375 0 0 0 0.23 0"/>
<feBlend mode="normal" in2="shape" result="effect2_innerShadow_290_4050"/>
</filter>
</defs>
</svg>
